<?xml version="1.0" encoding="UTF-8"?>
<svg width="1335px" height="299px" viewBox="0 0 1335 299" version="1.1" xmlns="http://www.w3.org/2000/svg" xmlns:xlink="http://www.w3.org/1999/xlink">
    <!-- Generator: Sketch 52.6 (67491) - http://www.bohemiancoding.com/sketch -->
    <title>Blue</title>
    <desc>Created with Sketch.</desc>
    <g id="Design" stroke="none" stroke-width="1" fill="none" fill-rule="evenodd">
        <g id="Blue" transform="translate(-330.000000, -847.000000)" fill="#146AFF">
            <path d="M563.546307,932.797642 C565.773751,927.1984 568.947811,922.999032 573.068581,920.199411 C577.189352,917.39979 581.699858,916 586.600234,916 C593.950799,916 600.521659,918.519621 606.313013,923.558939 C612.104367,928.598257 615,934.701339 615,941.868369 C615,945.227915 614.109036,948.923359 612.327081,952.954813 L558.200469,1069.53045 C555.750281,1075.12969 552.019369,1079.44105 547.00762,1082.46464 C541.995872,1085.48823 536.483031,1087 530.468933,1087 C524.454835,1087 518.99768,1085.48823 514.097304,1082.46464 C509.196927,1079.44105 505.5217,1075.12969 503.071512,1069.53045 L471.330598,998.644401 L441.594373,1069.53045 C439.366929,1075.12969 435.747387,1079.44105 430.735639,1082.46464 C425.723891,1085.48823 420.21105,1087 414.196952,1087 C408.182854,1087 402.670013,1085.48823 397.658265,1082.46464 C392.646517,1079.44105 388.804234,1075.12969 386.131301,1069.53045 L332.338804,952.954813 C330.779594,949.595268 330,946.011807 330,942.204322 C330,934.813323 333.062689,928.598257 339.188159,923.558939 C345.31363,918.519621 352.162916,916 359.736225,916 C365.08209,916 369.926707,917.39979 374.270223,920.199411 C378.613738,922.999032 381.899168,927.310383 384.126612,933.133595 L415.867526,1010.7387 L448.276671,933.469548 C450.504114,927.870306 453.9566,923.614946 458.634232,920.70334 C463.311864,917.791734 468.323537,916.335953 473.669402,916.335953 C479.015267,916.335953 484.02694,917.791734 488.704572,920.70334 C493.382204,923.614946 496.83469,927.870306 499.062134,933.469548 L532.473623,1011.07466 L563.546307,932.797642 Z M719.5,1088 C701.4667,1088 685.604312,1084.47269 671.912362,1077.41797 C658.220411,1070.36325 647.645486,1060.34121 640.187269,1047.35156 C632.729052,1034.36191 629,1019.1329 629,1001.66406 C629,984.195225 632.729052,969.0222 640.187269,956.144531 C647.645486,943.266863 658.164754,933.356806 671.745387,926.414062 C685.326021,919.471319 701.244066,916 719.5,916 C737.755934,916 753.673979,919.471319 767.254613,926.414062 C780.835246,933.356806 791.354514,943.266863 798.812731,956.144531 C806.270948,969.0222 810,984.195225 810,1001.66406 C810,1019.1329 806.270948,1034.36191 798.812731,1047.35156 C791.354514,1060.34121 780.835246,1070.36325 767.254613,1077.41797 C753.673979,1084.47269 737.755934,1088 719.5,1088 Z M718.5,1043 C739.500105,1043 750,1029.16681 750,1001.5 C750,973.833195 739.500105,960 718.5,960 C697.499895,960 687,973.833195 687,1001.5 C687,1029.16681 697.499895,1043 718.5,1043 Z M919.5,1088 C901.4667,1088 885.604312,1084.47269 871.912362,1077.41797 C858.220411,1070.36325 847.645486,1060.34121 840.187269,1047.35156 C832.729053,1034.36191 829,1019.1329 829,1001.66406 C829,984.195225 832.729053,969.0222 840.187269,956.144531 C847.645486,943.266863 858.164754,933.356806 871.745387,926.414062 C885.326021,919.471319 901.244066,916 919.5,916 C937.755934,916 953.673979,919.471319 967.254613,926.414062 C980.835246,933.356806 991.354514,943.266863 998.812731,956.144531 C1006.27095,969.0222 1010,984.195225 1010,1001.66406 C1010,1019.1329 1006.27095,1034.36191 998.812731,1047.35156 C991.354514,1060.34121 980.835246,1070.36325 967.254613,1077.41797 C953.673979,1084.47269 937.755934,1088 919.5,1088 Z M919.5,1043 C940.500105,1043 951,1029.16681 951,1001.5 C951,973.833195 940.500105,960 919.5,960 C898.499895,960 888,973.833195 888,1001.5 C888,1029.16681 898.499895,1043 919.5,1043 Z M1116.23312,1088 C1089.39202,1088 1068.14314,1080.38549 1052.48584,1065.15625 C1036.82853,1049.92701 1029,1029.21107 1029,1003.00781 C1029,985.762935 1032.80243,970.53392 1040.40741,957.320312 C1048.01238,944.106705 1058.69274,933.916702 1072.4488,926.75 C1086.20486,919.583297 1101.91785,916 1119.58824,916 C1128.98262,916 1138.37686,917.231759 1147.77124,919.695312 C1157.16562,922.158866 1165.4415,925.630186 1172.59913,930.109375 C1179.53308,934.364605 1183,940.859331 1183,949.59375 C1183,956.536493 1181.37837,962.191384 1178.13508,966.558594 C1174.89178,970.925803 1170.69792,973.109375 1165.55338,973.109375 C1162.19824,973.109375 1158.95499,972.605474 1155.82353,971.597656 C1152.69207,970.589839 1149.22515,969.078135 1145.42266,967.0625 C1140.94914,965.046865 1137.14671,963.535161 1134.01525,962.527344 C1130.88379,961.519526 1127.41687,961.015625 1123.61438,961.015625 C1101.47048,961.015625 1090.39869,974.564969 1090.39869,1001.66406 C1090.39869,1015.10163 1093.25052,1025.34762 1098.95425,1032.40234 C1104.65798,1039.45707 1112.87794,1042.98438 1123.61438,1042.98438 C1127.41687,1042.98438 1130.93971,1042.48047 1134.18301,1041.47266 C1137.42631,1040.46484 1141.06098,1038.95314 1145.08715,1036.9375 C1149.56066,1034.92186 1153.19534,1033.41016 1155.99129,1032.40234 C1158.78723,1031.39453 1161.86273,1030.89062 1165.21786,1030.89062 C1170.36241,1030.89062 1174.55627,1033.0742 1177.79956,1037.44141 C1181.04286,1041.80862 1182.66449,1047.46351 1182.66449,1054.40625 C1182.66449,1058.66148 1181.7698,1062.52472 1179.98039,1065.99609 C1178.19099,1069.46747 1175.73059,1072.09895 1172.59913,1073.89062 C1157.1655,1083.29692 1138.37702,1088 1116.23312,1088 Z M1234.5,1087 C1226.10295,1087 1219.08711,1084.70952 1213.45225,1080.12849 C1207.81739,1075.54746 1205,1068.67602 1205,1059.51397 L1205,874.821229 C1205,865.659172 1207.81739,858.731867 1213.45225,854.039106 C1219.08711,849.346345 1226.10295,847 1234.5,847 C1242.89705,847 1249.91289,849.346345 1255.54775,854.039106 C1261.18261,858.731867 1264,865.659172 1264,874.821229 L1264,1059.51397 C1264,1068.67602 1261.18261,1075.54746 1255.54775,1080.12849 C1249.91289,1084.70952 1242.89705,1087 1234.5,1087 Z M1375.50951,916 C1400.89653,916 1419.65815,922.102804 1431.79493,934.308594 C1443.9317,946.514384 1450,965.046751 1450,989.90625 L1450,1060.11719 C1450,1068.62765 1447.49474,1075.29034 1442.48414,1080.10547 C1437.47355,1084.9206 1430.51449,1087.32812 1421.60677,1087.32812 C1413.81251,1087.32812 1407.41017,1085.08856 1402.39958,1080.60938 C1397.38898,1076.13019 1394.66103,1070.08337 1394.21564,1062.46875 C1391.09794,1070.53129 1385.86473,1076.80206 1378.51586,1081.28125 C1371.16698,1085.76044 1362.37073,1088 1352.12685,1088 C1340.7695,1088 1330.52577,1085.70445 1321.39535,1081.11328 C1312.26493,1076.52211 1305.08318,1070.13936 1299.84989,1061.96484 C1294.61661,1053.79032 1292,1044.55213 1292,1034.25 C1292,1022.38015 1295.06198,1012.918 1301.18605,1005.86328 C1307.31011,998.808558 1317.05279,993.713557 1330.41438,990.578125 C1343.77597,987.442693 1361.81384,985.875 1384.52854,985.875 L1393.54757,985.875 L1393.54757,981.84375 C1393.54757,974.005169 1391.76605,968.350278 1388.20296,964.878906 C1384.63987,961.407535 1378.62724,959.671875 1370.1649,959.671875 C1361.03449,959.671875 1347.6731,962.80726 1330.08034,969.078125 C1324.9584,970.869801 1320.61594,971.765625 1317.05285,971.765625 C1311.48553,971.765625 1307.03173,969.75002 1303.69133,965.71875 C1300.35093,961.68748 1298.68076,956.424512 1298.68076,949.929688 C1298.68076,945.00258 1299.68287,940.97137 1301.6871,937.835938 C1303.69134,934.700505 1306.92034,931.901054 1311.37421,929.4375 C1319.16847,925.40623 1328.96682,922.158866 1340.76956,919.695312 C1352.57229,917.231759 1364.15216,916 1375.50951,916 Z M1366.46269,1047 C1374.52243,1047 1381.12684,1044.1942 1386.27612,1038.58252 C1391.4254,1032.97085 1394,1025.7638 1394,1016.96117 L1394,1013 L1388.62687,1013 C1374.29844,1013 1364.11197,1014.26536 1358.06716,1016.79612 C1352.02236,1019.32687 1349,1023.56308 1349,1029.50485 C1349,1034.56637 1350.62312,1038.74756 1353.8694,1042.04854 C1357.11569,1045.34953 1361.31341,1047 1366.46269,1047 Z M1592.26703,915 C1606.34445,915 1618.91339,918.632039 1629.97422,925.896226 C1641.03505,933.160414 1649.63778,943.386001 1655.78269,956.573295 C1661.92759,969.760588 1665,984.84752 1665,1001.83454 C1665,1018.82157 1661.92759,1033.74086 1655.78269,1046.59289 C1649.63778,1059.44491 1641.09091,1069.33523 1630.1418,1076.26415 C1619.1927,1083.19307 1606.5679,1086.65747 1592.26703,1086.65747 C1581.76483,1086.65747 1572.10072,1084.53413 1563.2744,1080.28737 C1554.44808,1076.04062 1547.57707,1070.34111 1542.66114,1063.18868 L1542.66114,1120.18433 C1542.66114,1128.0073 1539.97977,1134.26558 1534.61694,1138.95936 C1529.25412,1143.65314 1522.21551,1146 1513.50092,1146 C1504.33943,1146 1496.96565,1143.48551 1491.37937,1138.45646 C1485.7931,1133.42741 1483,1127.00149 1483,1119.17852 L1483,943.162554 C1483,934.892557 1485.62551,928.243131 1490.87661,923.214078 C1496.12771,918.185026 1503.22218,915.670537 1512.16022,915.670537 C1520.65136,915.670537 1527.52238,917.905638 1532.77348,922.375907 C1538.02458,926.846176 1540.98526,932.769194 1541.65562,940.145138 C1546.34809,932.322167 1553.21911,926.175639 1562.26888,921.70537 C1571.31865,917.235101 1581.31793,915 1592.26703,915 Z M1574.83854,1043 C1585.22054,1043 1593.17619,1039.55559 1598.70573,1032.66667 C1604.23527,1025.77774 1607,1015.88895 1607,1003 C1607,989.444377 1604.17885,979.055592 1598.53646,971.833333 C1592.89407,964.611075 1584.882,961 1574.5,961 C1564.118,961 1556.10593,964.55552 1550.46354,971.666667 C1544.82115,978.777813 1542,988.999933 1542,1002.33333 C1542,1015.44451 1544.82115,1025.49996 1550.46354,1032.5 C1556.10593,1039.50004 1564.23085,1043 1574.83854,1043 Z"></path>
        </g>
    </g>
</svg>
